<svg xmlns="http://www.w3.org/2000/svg" xml:space="preserve" viewBox="0 0 302.8 304"><switch><g><circle cx="151.4" cy="151.2" r="109.1" fill="#fff"/><g fill="#34b44a"><path d="M186.8 178.3c-1.2 2.7-3.4 6.6-7 8.9 0 0-9.7 7.5-29.6-2.4 0 0-19-9.8-29.7-27.4 0 0-9.3-13.3-5.9-25.4 1-3.4 3.1-6.4 5.9-8.7l1.4-1.2c2.2-2 5.8-1.7 7.5.8l9.4 13.4c1.5 2.2 1 5.2-1.3 6.6l-2.6 1.7c-1.1.7-2.1 1.8-2.6 3.1-.6 1.5-.7 3.6.9 5.9 0 0 3 7.9 18.6 17.9 1.7 1.1 3.7 1.6 5.7 1.2 1.6-.3 3.3-1.1 4.5-3l2.9-4.4c.9-1.4 2.7-1.8 4.2-1l16 9.3c1.8.9 2.5 2.9 1.7 4.7m-35.4-88.9c-34.1 0-61.9 27.7-61.9 61.9 0 13.2 4.2 25.5 11.3 35.6L94.5 209l20.8-7.7c10.2 7.4 22.6 11.8 36.1 11.8 34.1 0 61.9-27.7 61.9-61.9 0-34.1-27.8-61.8-61.9-61.8"/><path d="M224.1 158.5c-3.3 33.7-30.1 61.1-63.6 65.2-17.1 2.1-33.2-1.9-46.5-9.9l-33 12c-1.4.5-2.8-.8-2.4-2.3l10.2-34.8c-8-13.3-12-29.4-9.9-46.5 4.1-33.5 31.5-60.3 65.1-63.6 46.1-4.6 84.6 33.9 80.1 79.9M151.4 31.3c-66.7 0-120.7 54-120.7 120.7s54 120.7 120.7 120.7 120.7-54 120.7-120.7-54-120.7-120.7-120.7"/></g></g></switch></svg>