<svg xmlns="http://www.w3.org/2000/svg" xml:space="preserve" viewBox="0 0 1920 400.1"><switch><g fill="#fff"><path d="M295.1 97.1c0-1.8 1.2-3 3-3h125.8c1.8 0 3 1.2 3 3v25.4c0 1.8-1.2 3-3 3h-92.2q-1.8 0-1.8 1.8v49q0 1.8 1.8 1.8h77.7c1.8 0 3 1.2 3 3v25.4c0 1.8-1.2 3-3 3h-77.7q-1.8 0-1.8 1.8V262q0 1.8 1.8 1.8h92.2c1.8 0 3 1.2 3 3v25.4c0 1.8-1.2 3-3 3H298c-1.8 0-3-1.2-3-3V97.1zm167.1 0c0-1.8 1.2-3 3-3H591c1.8 0 3 1.2 3 3v25.4c0 1.8-1.2 3-3 3h-92.2q-1.8 0-1.8 1.8v51.1q0 1.8 1.8 1.8h77.7c1.8 0 3 1.2 3 3v25.4c0 1.8-1.2 3-3 3h-77.7q-1.8 0-1.8 1.8v78.9c0 1.8-1.2 3-3 3h-28.9c-1.8 0-3-1.2-3-3V97.1zm164.5 0c0-1.8 1.2-3 3-3h125.8c1.8 0 3 1.2 3 3v25.4c0 1.8-1.2 3-3 3h-92.2q-1.8 0-1.8 1.8v49q0 1.8 1.8 1.8H741c1.8 0 3 1.2 3 3v25.4c0 1.8-1.2 3-3 3h-77.7q-1.8 0-1.8 1.8V262q0 1.8 1.8 1.8h92.2c1.8 0 3 1.2 3 3v25.4c0 1.8-1.2 3-3 3H629.7c-1.8 0-3-1.2-3-3zM788 194.6c0-31.9 1.2-41.9 5.3-54.3C803.6 107.5 829 91 863 91c32.2 0 56.4 16.5 67.9 43.1.6 1.5 0 3-1.5 3.6l-25.1 12.1c-1.8.9-3.2 0-3.8-1.5-6.5-14.2-17.7-26-37.5-26-19.2 0-30.4 10.3-36 26.6-2.7 8.3-3.5 16.2-3.5 45.8s.9 37.5 3.5 45.8c5.6 16.2 16.8 26.6 36 26.6 19.8 0 31-11.8 37.5-26 .6-1.5 2.1-2.4 3.8-1.5l25.1 12.1c1.5.6 2.1 2.1 1.5 3.5-11.5 26.6-35.7 43.1-67.9 43.1-34 0-59.4-16.5-69.7-49.3-4.1-12.4-5.3-22.5-5.3-54.4M1001.8 295c-1.8 0-3-1.2-3-3V127.3q0-1.8-1.8-1.8h-52.6c-1.8 0-3-1.2-3-3V97.1c0-1.8 1.2-3 3-3h143.5c1.8 0 3 1.2 3 3v25.4c0 1.8-1.2 3-3 3h-52.6q-1.8 0-1.8 1.8v164.8c0 1.8-1.2 3-3 3h-28.7zm116.7-197.9c0-1.8 1.2-3 2.9-3h28.9c1.8 0 2.9 1.2 2.9 3V292c0 1.8-1.2 3-2.9 3h-28.9c-1.8 0-2.9-1.2-2.9-3zm127 197.9c-1.8 0-3-1.2-3.5-3l-63.5-194.9c-.6-1.8.6-3 2.4-3h28.6c2.1 0 3.3.9 3.8 3l44.9 142.4h.9l43.1-142.4c.6-2.1 1.8-3 3.8-3h28.7c1.8 0 3 1.2 2.4 3L1273.3 292c-.6 1.8-1.8 3-3.5 3zm152.7-197.9c.6-1.8 1.8-3 3.8-3h27.2c2.1 0 3.2 1.2 3.8 3l67.9 195c.6 1.8 0 3-2.1 3H1470c-2.1 0-3.2-.9-3.8-3l-13.3-39h-75.6l-13.3 39c-.6 2.1-1.8 3-3.8 3h-28.6c-2.1 0-2.7-1.2-2.1-3zm44 125-26.6-78h-.9l-26.9 78zm85-125c0-1.8 1.2-3 3-3h28.9c1.8 0 3 1.2 3 3V262q0 1.8 1.8 1.8h92.2c1.8 0 3 1.2 3 3v25.4c0 1.8-1.2 3-3 3h-125.8c-1.8 0-3-1.2-3-3V97.1zm159.8 0c0-1.8 1.2-3 3-3h125.8c1.8 0 3 1.2 3 3v25.4c0 1.8-1.2 3-3 3h-92.2q-1.8 0-1.8 1.8v49q0 1.8 1.8 1.8h77.7c1.8 0 3 1.2 3 3v25.4c0 1.8-1.2 3-3 3h-77.7q-1.8 0-1.8 1.8V262q0 1.8 1.8 1.8h92.2c1.8 0 3 1.2 3 3v25.4c0 1.8-1.2 3-3 3H1690c-1.8 0-3-1.2-3-3zm161.4 181.2c0-9.6 7.5-17.2 17.1-17.2 9.5 0 17 7.6 17 17.1 0 9.6-7.6 17.2-17.1 17.2-9.6 0-17-7.6-17-17.1m31.9 0c0-8.4-6.5-15.1-14.8-15.1-8.4 0-14.8 6.7-14.8 15.1s6.5 15.1 14.9 15.1c8.2-.1 14.7-6.8 14.7-15.1m-21.2-9.8h6.6c4.3 0 6.7 1.9 6.7 5.4 0 3-1.7 4.6-4.2 5.2l4.5 8.3h-2.9l-4.2-8h-3.9v8h-2.6zm6.5 8.7c2.7 0 4.2-.8 4.2-3.3 0-2.3-1.6-3.1-4.3-3.1h-3.8v6.4zm-1638.4-143c6 6 10.9 4 10.9-4.5V94.3h-35.4c-8.5 0-10.5 4.9-4.5 10.9zm0 78.6c6 6 10.9 4 10.9-4.5v-20c0-8.5-4.9-20.3-10.9-26.3l-56.9-56.9c-6-6-17.8-10.9-26.3-10.9h-20c-8.5 0-10.5 4.9-4.5 10.9zm0 78.6c6 6 10.9 4 10.9-4.5v-20c0-8.5-4.9-20.3-10.9-26.3L91.7 105.1c-6-6-17.8-10.9-26.3-10.9h-20c-8.5 0-10.5 4.9-4.5 10.9z"/></g></switch></svg>