<svg xmlns="http://www.w3.org/2000/svg" xml:space="preserve" width="226.188" height="225.568" style="max-height:500px" viewBox="38.914 38.912 226.188 225.568"><switch><g><g fill="#fff"><path d="M151.6 47.5c57.7 0 104.4 46.8 104.4 104.4 0 57.7-46.8 104.4-104.4 104.4-57.7 0-104.4-46.8-104.4-104.4-.1-57.7 46.7-104.4 104.4-104.4m0-4.6c-60.1 0-109 48.9-109 109s48.9 109 109 109 109-48.9 109-109-48.9-109-109-109"/><path d="M121.7 104.9c-1.4 0-2.5 1.1-2.5 2.4v25.4h-4.4v-30.8c0-1.3-1.1-2.4-2.5-2.4-1.3 0-2.4 1.1-2.4 2.4v30.8h-4.4v-25.4c0-1.3-1.1-2.4-2.5-2.4-1.3 0-2.4 1.1-2.4 2.4v27.8c0 5 3.1 9.2 7.4 10.9v57.9c0 2.4 1.9 4.3 4.3 4.3s4.3-1.9 4.3-4.3V146c1.5-.6 2.9-1.5 4-2.6 2.2-2.2 3.4-5.2 3.4-8.3v-27.8c.1-1.3-1-2.4-2.3-2.4m-4.5 35.1c-1.3 1.3-3 2-4.8 2-2.9 0-5.4-1.8-6.4-4.4h12.7q-.45 1.35-1.5 2.4m87.2-16.1c0-10.7-6.3-23.8-13.7-23.8S177 113.2 177 123.9c0 9 4.3 15 9.4 17.2V204c0 2.4 1.9 4.3 4.3 4.3s4.3-1.9 4.3-4.3v-62.9c5.1-2.2 9.4-8.3 9.4-17.2M191 137.1c-.1 0-.2-.1-.3-.1s-.2.1-.3.1c-3.5-.2-8.4-4.4-8.4-13.2 0-10 6-18.9 8.8-18.9s8.8 9 8.8 18.9c-.1 8.8-5 12.9-8.6 13.2M152 84c-2.2-.3-4.2 1.2-4.7 3.3-.8 3.6-7.9 35-7.9 43.6 0 7.7 5 13.1 7.8 15.6v57.4c0 2.4 1.9 4.3 4.3 4.3s4.3-1.9 4.3-4.3V88.3c0-2.2-1.6-4-3.8-4.3m-.4 60.4s-7.8-5.1-7.8-13.5 7.8-42.7 7.8-42.7z"/></g></g></switch></svg>