<svg xmlns="http://www.w3.org/2000/svg" xml:space="preserve" width="231.052" height="232.256" style="max-height:500px" viewBox="37.09 35.872 231.052 232.256"><switch><g><g fill="#fff"><path d="M151.4 44.9c59.2 0 107.1 47.9 107.1 107.1s-48 107.1-107.1 107.1c-59.2 0-107.1-48-107.1-107.1 0-59.2 47.9-107.1 107.1-107.1m0-4.7C89.7 40.2 39.6 90.4 39.6 152c0 61.7 50.2 111.8 111.9 111.8S263.3 213.6 263.3 152 213.1 40.2 151.4 40.2"/><path d="M185.5 196c-5.8 0-10.5 4.7-10.5 10.5s4.7 10.5 10.5 10.5 10.6-4.7 10.6-10.5c-.1-5.8-4.8-10.5-10.6-10.5m0 16.9c-3.5 0-6.4-2.9-6.4-6.4s2.9-6.4 6.4-6.4c3.6 0 6.4 2.9 6.4 6.4s-2.9 6.4-6.4 6.4M129.1 196c-5.8 0-10.6 4.7-10.6 10.5s4.7 10.5 10.6 10.5c5.8 0 10.5-4.7 10.5-10.5s-4.7-10.5-10.5-10.5m0 16.9c-3.6 0-6.4-2.9-6.4-6.4s2.9-6.4 6.4-6.4 6.4 2.9 6.4 6.4c-.1 3.5-2.9 6.4-6.4 6.4m83.3-96.8q-.3-.3-.6-.3h-94.9l-1.1-7.2c-1.2-7.1-7.1-12.3-14.2-12.9-.8-1.2-2.1-2-3.7-2-2.5 0-4.6 2-4.6 4.6 0 2.5 2 4.6 4.6 4.6 1.3 0 2.4-.5 3.2-1.3 4.5.4 8.2 3.6 8.9 8.1l1.8 10.9 8 48.6c-5.6 2.3-9.1 8.3-8.2 14.4.8 5.9 6 10.4 11.9 10.4h74.9c.4 0 .8-.4.8-.8V189c0-.5-.4-.8-.8-.8h-74.9c-3.1 0-5.8-2.3-6.2-5.4-.6-4.2 2.2-8 6.4-8.8l74-15.1c5-.9 8.9-4.9 9.7-10l5.2-32.2c.1-.2 0-.4-.2-.6M97.9 100.4c-1.1 0-2.1-.9-2.1-2.1 0-1.1.9-2.1 2.1-2.1 1.1 0 2.1.9 2.1 2.1-.1 1.1-1 2.1-2.1 2.1m20 21.2h17.9l1.3 18.1-15.9 1.3zm7.6 46.1-3.5-20.9 15.4-1.3 1.4 19.5zm33.8-6.9-14.7 3-1.4-18.8 16.1-1.4zm0-23-16.5 1.4-1.3-17.6h17.7v16.2zm21 18.8-15.3 3.1v-16.5l16.3-1.4zm1.5-20.7-16.7 1.4v-15.8h17.8zm19.9 12.1c-.4 2.7-2.5 4.7-5.1 5.2l-10.4 2.1 1-14.1L203 140zm2.3-13.9-16.4 1.4 1-13.9H206z"/></g></g></switch></svg>