<svg xmlns="http://www.w3.org/2000/svg" xml:space="preserve" width="226.796" height="227.392" style="max-height:500px" viewBox="38.914 39.52 226.796 227.392"><switch><g><g fill="#fff"><path d="M151.4 47.5C209.2 47.5 256 94.3 256 152s-46.8 104.6-104.6 104.6c-57.7 0-104.6-46.8-104.6-104.6.1-57.7 46.9-104.5 104.6-104.5m0-4.6c-60.2 0-109.2 49-109.2 109.2s49 109.2 109.2 109.2 109.2-49 109.2-109.2-49-109.2-109.2-109.2"/><path d="M207.7 137c.2-.9 0-2.3-.4-3.1l-2.2-4.9c-.4-.8-1.4-1.5-2.3-1.5h-.5c-2.2-3.7-6.7-8.6-15.8-10v4.5c5.5 1 8.8 3.6 10.8 6-.6.4-1.2.9-2 2l-2.8 3.9c-.5.7-.9 2.1-.8 3l1.9 14.4c.1.9 1 1.7 1.9 1.7l4.1.1v23.8c0 .6-.1 2.3-.8 3-.2.2-.5.4-1.1.4-2.1 0-2.2-3.4-2.2-3.6V161c0-3.2-2.5-4.9-4-5.4l-.4-.1h-4.6v4.9h3.7c.2.1.4.3.4.6v15.7c0 2.9 1.5 8.5 7.1 8.5 1.9 0 3.5-.7 4.7-2 2.2-2.3 2.1-5.8 2.1-6.6v-23.4h1.4c.9 0 1.6-.7 1.5-1.6l-1-10.8c-.1-.9.1-1.8.5-1.9.2-.2.6-1 .8-1.9m-11 13.1c-.4-.2-.6-.6-.6-.9-.1-.4-.9-7.7-.7-8.2.2-.4 1.1-1.5 1.5-1.9.4-.3.7-.6 1-.8 1.1-1 3.2-.3 3.4 1.1l.9 9.5c.1.8-1.2 1-5.3 1.2z"/><path d="M189.6 189.3h-6.8V98.1l-2-.4c-.8-.2-19.8-4-33.1-4s-32.3 3.8-33.1 4l-2 .4v91.2h-6.8c-1.7 0-3.2 1.4-3.2 3.1v11.7c0 1.7 1.4 3.2 3.2 3.2h83.7c1.8 0 3.1-1.4 3.1-3.2v-11.7c.2-1.7-1.2-3.1-3-3.1m-1.7 13.1h-80.2v-8.2h20.2v-4.9h-10.3v-87.2c5.2-1 19.8-3.5 30.2-3.5s24.9 2.5 30.2 3.5v87.2h-9.8v4.9h19.7z"/><path d="M171.9 131.7v-10.9c0-1.4-1.1-2.5-2.4-2.5-1.4 0-2.5 1.1-2.5 2.5v8.5h-38.2v-8.5c0-1.4-1.1-2.5-2.4-2.5-1.4 0-2.4 1.1-2.4 2.5v10.9c0 1.4 1.1 2.4 2.4 2.4h43.1c1.3.1 2.4-1 2.4-2.4"/></g></g></switch></svg>